<?xml version="1.0" encoding="iso-8859-1"?>
<!-- Uploaded to: SVG Repo, www.svgrepo.com, Generator: SVG Repo Mixer Tools -->
<!DOCTYPE svg PUBLIC "-//W3C//DTD SVG 1.1//EN" "http://www.w3.org/Graphics/SVG/1.1/DTD/svg11.dtd">
<svg fill="#000000" height="800px" width="800px" version="1.1" id="Capa_1" xmlns="http://www.w3.org/2000/svg" xmlns:xlink="http://www.w3.org/1999/xlink" 
	 viewBox="0 0 470 470" xml:space="preserve">
<g>
	<path d="M391.147,287.438c0.688,0.196,1.38,0.29,2.062,0.29c3.265,0,6.268-2.149,7.208-5.444C404.785,266.974,407,251.065,407,235
		c0-15.916-2.174-31.681-6.462-46.859c-1.126-3.986-5.267-6.307-9.257-5.178c-3.986,1.126-6.305,5.27-5.179,9.256
		C390.016,206.07,392,220.463,392,235c0,14.673-2.021,29.197-6.007,43.167C384.856,282.15,387.164,286.301,391.147,287.438z"/>
	<path d="M113.372,123.99c-3.181-2.65-7.91-2.222-10.563,0.96C77.138,155.754,63,194.837,63,235
		c0,40.134,14.119,79.196,39.758,109.989c1.483,1.782,3.617,2.701,5.768,2.701c1.691,0,3.394-0.569,4.795-1.736
		c3.184-2.65,3.615-7.379,0.965-10.563C90.887,307.288,78,271.635,78,235c0-36.66,12.903-72.333,36.332-100.447
		C116.983,131.372,116.554,126.642,113.372,123.99z"/>
	<path d="M401.17,68.83C356.784,24.444,297.771,0,235,0S113.216,24.444,68.83,68.83C24.444,113.215,0,172.229,0,235
		s24.444,121.785,68.83,166.17C113.216,445.556,172.229,470,235,470s121.784-24.444,166.17-68.83
		C445.556,356.785,470,297.771,470,235S445.556,113.215,401.17,68.83z M235,455c-121.309,0-220-98.691-220-220S113.691,15,235,15
		s220,98.691,220,220S356.309,455,235,455z"/>
	<path d="M111.024,186.967V189c0,4.142,3.357,7.5,7.5,7.5s7.5-3.358,7.5-7.5v-2.033c0-4.142-3.357-7.5-7.5-7.5
		S111.024,182.825,111.024,186.967z"/>
	<path d="M221.73,360.577c-2.841-3.014-7.589-3.154-10.602-0.314l-25.345,23.887c-15.209-5.013-29.635-12.378-42.863-21.973
		c-3.352-2.431-8.043-1.687-10.475,1.667c-2.432,3.353-1.686,8.043,1.668,10.475C163.589,395.7,198.475,407,235,407
		c51.424,0,99.741-22.743,132.563-62.397c0.03-0.036,0.054-0.076,0.084-0.112c0.087-0.109,0.169-0.221,0.25-0.335
		c0.067-0.094,0.133-0.188,0.195-0.284c0.067-0.104,0.129-0.21,0.19-0.317c0.065-0.114,0.13-0.227,0.189-0.343
		c0.046-0.091,0.087-0.183,0.129-0.275c0.062-0.135,0.122-0.27,0.176-0.407c0.031-0.079,0.057-0.16,0.085-0.24
		c0.052-0.151,0.103-0.302,0.146-0.455c0.021-0.076,0.038-0.153,0.057-0.23c0.038-0.156,0.075-0.312,0.103-0.47
		c0.015-0.084,0.025-0.169,0.037-0.254c0.021-0.149,0.042-0.299,0.054-0.449c0.008-0.101,0.011-0.202,0.015-0.304
		c0.006-0.134,0.011-0.267,0.01-0.4c-0.001-0.12-0.01-0.239-0.017-0.359c-0.007-0.116-0.013-0.232-0.025-0.348
		c-0.014-0.13-0.035-0.259-0.055-0.389c-0.017-0.107-0.033-0.214-0.055-0.321c-0.026-0.129-0.06-0.257-0.093-0.385
		c-0.028-0.108-0.056-0.217-0.089-0.324c-0.036-0.117-0.078-0.232-0.121-0.348c-0.043-0.119-0.087-0.238-0.136-0.354
		c-0.042-0.098-0.088-0.195-0.134-0.292c-0.063-0.133-0.127-0.264-0.198-0.393c-0.045-0.081-0.093-0.161-0.141-0.241
		c-0.082-0.138-0.168-0.273-0.259-0.406c-0.022-0.032-0.04-0.065-0.062-0.097l-28.334-39.825c-0.032-0.045-0.069-0.084-0.101-0.128
		c-0.093-0.124-0.187-0.245-0.287-0.363c-0.066-0.078-0.134-0.155-0.203-0.23c-0.094-0.103-0.19-0.202-0.29-0.299
		c-0.085-0.083-0.171-0.163-0.259-0.241c-0.089-0.079-0.179-0.155-0.271-0.229c-0.104-0.084-0.21-0.165-0.318-0.243
		c-0.084-0.06-0.169-0.118-0.255-0.175c-0.119-0.078-0.239-0.153-0.361-0.224c-0.085-0.05-0.172-0.097-0.259-0.143
		c-0.124-0.066-0.25-0.129-0.377-0.187c-0.095-0.044-0.191-0.084-0.288-0.124c-0.121-0.05-0.243-0.097-0.367-0.14
		c-0.11-0.039-0.221-0.073-0.333-0.107c-0.112-0.033-0.225-0.065-0.338-0.094c-0.127-0.032-0.255-0.059-0.384-0.084
		c-0.102-0.02-0.204-0.038-0.307-0.054c-0.14-0.021-0.28-0.037-0.42-0.05c-0.097-0.009-0.194-0.017-0.292-0.022
		c-0.142-0.008-0.284-0.011-0.427-0.01c-0.102,0-0.204,0.002-0.307,0.007c-0.134,0.006-0.267,0.016-0.402,0.029
		c-0.116,0.011-0.232,0.025-0.348,0.042c-0.117,0.017-0.234,0.037-0.352,0.06c-0.135,0.026-0.269,0.057-0.404,0.091
		c-0.099,0.025-0.197,0.052-0.296,0.081c-0.148,0.044-0.295,0.094-0.441,0.147c-0.051,0.019-0.102,0.031-0.153,0.051l-0.99,0.386
		l-10.209-29.711h2.34c2.354,0,4.571-1.105,5.988-2.984c15.127-20.061,23.123-43.949,23.123-69.083
		c0-63.398-51.578-114.976-114.976-114.976c-30.389,0-59.065,11.792-80.748,33.206c-2.164,2.138-2.823,5.371-1.668,8.185
		c0.739,1.798,2.128,3.19,3.826,3.966c-16.936,19.049-26.386,43.599-26.386,69.619v1.95l-15.666,22.767
		c-2.348,3.413-1.485,8.082,1.928,10.43c1.298,0.894,2.778,1.322,4.244,1.322c2.386,0,4.731-1.135,6.186-3.249l3.309-4.808v37.152
		c-2.532,1.204-4.287,3.779-4.287,6.769s1.755,5.565,4.287,6.769v8.601c0,22.479,18.289,40.768,40.795,40.768l46.499-0.164
		l4.726,15.104l-9.498,3.707c-3.858,1.506-5.766,5.854-4.261,9.713c1.157,2.963,3.989,4.775,6.989,4.775
		c0.907,0,1.829-0.166,2.725-0.515l111.73-43.601l21.537,30.271C322.436,372.887,280.026,392,235,392
		c-10.93,0-21.696-1.115-32.182-3.293l18.598-17.528C224.431,368.338,224.571,363.592,221.73,360.577z M236.001,91.639
		c55.127,0,99.976,44.849,99.976,99.976c0,20.615-6.188,40.266-17.933,57.067h-29.401l-7.675-11.018
		c4.05-6.295,6.476-14.224,6.476-22.838c0-20.402-13.568-37-30.246-37c-8.22,0-15.681,4.038-21.138,10.571h-15.244
		c-2.305-7.031-5.83-13.637-10.487-19.519l23.991-46.197h34.429c4.143,0,7.5-3.358,7.5-7.5s-3.357-7.5-7.5-7.5h-38.985h-48.046
		C197.764,97.241,216.478,91.639,236.001,91.639z M230.982,310.165c-0.979-3.131-3.88-5.261-7.158-5.261c-0.009,0-0.018,0-0.026,0
		l-52.005,0.184c-14.209,0-25.769-11.56-25.769-25.768v-7.871h9.038c4.143,0,7.5-3.358,7.5-7.5s-3.357-7.5-7.5-7.5h-9.038v-60.475
		c0-0.005,0-0.01,0-0.016v-4.343c0-26.79,11.683-51.767,32.146-68.934h39.245l-22.739,43.787c-1.467,2.826-0.99,6.27,1.189,8.591
		c3.73,3.972,6.718,8.481,8.895,13.338h-36.736v-11.43c0-4.142-3.357-7.5-7.5-7.5s-7.5,3.358-7.5,7.5v18.91
		c0,0.007-0.001,0.013-0.001,0.019s0.001,0.013,0.001,0.019v18.91c0,4.142,3.357,7.5,7.5,7.5s7.5-3.358,7.5-7.5v-11.429h40.71
		c0.152,1.563,0.232,3.139,0.232,4.725c0,4.142,3.357,7.5,7.5,7.5s7.5-3.358,7.5-7.5c0-1.584-0.069-3.159-0.185-4.725h4.653
		c-0.959,3.602-1.484,7.441-1.484,11.429c0,4.142,3.357,7.5,7.5,7.5s7.5-3.358,7.5-7.5c0-11.925,6.981-22,15.246-22
		s15.246,10.075,15.246,22s-6.981,22-15.246,22c-4.143,0-7.5,3.358-7.5,7.5s3.357,7.5,7.5,7.5c4.609,0,8.978-1.272,12.891-3.538
		l8.484,12.18c1.402,2.013,3.701,3.213,6.154,3.213h18.938l12.084,35.169l-78.698,30.711L230.982,310.165z"/>
	<path d="M235,25C119.206,25,25,119.206,25,235s94.206,210,210,210c50.33,0,99.016-18.083,137.087-50.919
		c3.137-2.705,3.486-7.441,0.781-10.578c-2.707-3.137-7.442-3.486-10.578-0.781C326.941,413.209,281.735,430,235,430
		c-107.523,0-195-87.477-195-195S127.477,40,235,40s195,87.477,195,195c0,46.735-16.79,91.941-47.278,127.29
		c-2.705,3.137-2.355,7.873,0.781,10.578c3.136,2.705,7.872,2.356,10.578-0.781C426.916,334.016,445,285.331,445,235
		C445,119.206,350.794,25,235,25z"/>
</g>
</svg>