<?xml version="1.0" ?>
<!-- Uploaded to: SVG Repo, www.svgrepo.com, Generator: SVG Repo Mixer Tools -->
<svg width="800px" height="800px" viewBox="0 0 91 91" id="Layer_1" version="1.1" xml:space="preserve" xmlns="http://www.w3.org/2000/svg" xmlns:xlink="http://www.w3.org/1999/xlink">
<style type="text/css">
	.st0{fill:#3B6A75;}
</style>
<g>
<path class="st0" d="M37.4,54.9c0.4-3.6-1.2-7.4-1.3-11.1c-0.1-3.2-0.1-6.3,0-9.5c0-2-1.1-3.2-2.6-3.7c-0.6-0.2-1.4-0.2-2.1-0.1   c-1,0.3-1.8,0.9-3.2,2.3c-1.8,1.7-3.6,3.4-5.8,4.7c-2.9,1.6-6.1,2.5-9.3,3.5c-1.9,0.6-2.1,3.6,0,4.1c3.2,0.7,7,0.3,10.6-0.8   C17.9,54.5,11.1,64,3.8,73.3c-1.6,2-0.7,5.5,2.2,5.4c6.4-0.1,12.8-0.2,19.2-0.3c4.1-0.1,4.1-6.4,0-6.4c-4.2,0.1-8.4,0.1-12.6,0.2   c6.1-7.9,11.7-16.1,16.6-24.7c0.9,3.5,1.8,7.1,4.9,9.3C35.6,57.9,37.2,56.4,37.4,54.9z"/>
<path class="st0" d="M40.5,25.2c3.5-5.5,6-9.9,9.6-15.3c5.2,9.4,10.4,18.7,15.7,28.1c-1.1-0.4-2.2-0.8-3.4-1   c-3.5-0.7-7.4-2.3-10.8-0.4c-1.3,0.7-1.4,2.5-0.4,3.5c2.4,2.4,6,2.4,8.9,3.8c2.6,1.3,5.2,2.6,7.7,4c0.4,0.2,3.3,1.6,3.6,1.8   c1.9,0.9,4.4,0.5,4.8-2.2c0.5-3.5,0.5-7.1,0.9-10.6c0.5-3.8,1.4-7.4,1.3-11.2c0-2.1-2.9-3-3.9-1.1c-1.4,2.6-2.8,5.8-3.8,9.1   C64.7,23.2,58.9,12.7,53,2.1c-1.2-2.2-4.2-1.9-5.5,0C42.9,9.1,39.5,15,35,22C32.8,25.4,38.3,28.6,40.5,25.2z"/>
<path class="st0" d="M89.7,73.7c-3.9-5.8-7.5-11.6-10.9-17.7c-2-3.6-7.5-0.4-5.5,3.2c2.4,4.3,4.9,8.4,7.5,12.5   c-9.7-0.7-19.5-1.1-29.2-0.8c0.7-0.9,1.3-1.9,2-2.8c1.5-1.9,3.2-3.8,3.1-6.3c-0.1-1.5-1.3-2.4-2.8-2.1c-2.2,0.4-3.5,2.2-5,3.8   c-1.4,1.5-2.9,2.7-4.4,4c-2.2,1.8-4.3,3.3-6.8,4.6c-3.2,1.6-2.3,5.4,0.1,6.9c0.4,0.2,2.8,1.4,3.6,1.9c1.9,1,3.8,1.9,5.7,3   c3.1,1.8,5.9,3.9,8.7,6.1c1.9,1.5,4.3-0.3,3.3-2.6c-1.7-3.8-4.8-6.3-8-8.8c-0.5-0.4-1-0.8-1.5-1.2c12.4-0.5,24.9,0.2,37.3,1.2   C89.3,78.7,91,75.6,89.7,73.7z"/>
</g>
</svg>