<?xml version="1.0" encoding="utf-8"?>

<!-- Uploaded to: SVG Repo, www.svgrepo.com, Generator: SVG Repo Mixer Tools -->
<svg version="1.1" id="Icons" xmlns="http://www.w3.org/2000/svg" xmlns:xlink="http://www.w3.org/1999/xlink" 
	 viewBox="0 0 32 32" xml:space="preserve">
<style type="text/css">
	.st0{fill:none;stroke:#000000;stroke-width:2;stroke-linecap:round;stroke-linejoin:round;stroke-miterlimit:10;}
</style>
<path d="M22.2,29.9c-0.5,0-0.9,0-1.4-0.1c-1-0.2-1.3-1.1-1-1.9H2.2c0.6-2,2.2-3.5,4.2-4.1c2.7-0.7,4.5-3.1,4.5-5.8
	c0-0.4-0.2-0.7-0.5-0.9C9,16.4,8.1,14.7,8,12.9c0-0.7,0.5-1.4,1.2-1.6l1.1-0.4c0.4-0.1,0.7-0.5,0.7-0.9V6.8c1.8,2.5,4.4,4.2,7.3,4.9
	C18.1,12.1,18,12.5,18,13c0,1.8-1,3.4-2.5,4.3c-0.3,0.2-0.5,0.5-0.5,0.9c0,2.1,1.2,4,2.9,5.1c0.1-0.7,0.5-1.3,1-1.7
	c-1-0.6-1.8-1.6-1.9-2.8c1.8-1.3,3-3.4,3-5.7c0-0.6,0.4-1,1-1c0.6,0,1-0.4,1-1V8.7c0-3.4-2.5-6.3-5.8-6.7c-2-0.2-4,0.5-5.4,2
	C9.8,3.9,8.9,4.2,8,4.9C6.7,5.8,6,7.3,6,9v3.8c0,0,0,0.1,0,0.1c0,0,0,0.1,0,0.1c0,0,0,0.1,0,0.1c0.1,2.2,1.2,4.3,2.9,5.6
	c-0.2,1.6-1.4,2.9-3,3.3c-3,0.8-5.2,3.1-5.8,6.1c-0.1,0.5,0,0.9,0.3,1.3C0.8,29.8,1.2,30,1.7,30h20.7C22.3,30,22.3,30,22.2,29.9z"/>
<path d="M31.7,21.9c-0.1-0.5-0.7-0.8-1.2-0.7c-0.7,0.2-1.2,0-1.3-0.2c-0.1-0.2,0-0.7,0.5-1.3c0.4-0.4,0.4-1,0-1.4
	c-1-1-2.2-1.7-3.6-2.1c-0.5-0.1-1.1,0.2-1.2,0.7c-0.2,0.7-0.6,1-0.9,1s-0.6-0.4-0.9-1c-0.2-0.5-0.7-0.8-1.2-0.7
	c-1.4,0.4-2.6,1.1-3.6,2.1c-0.4,0.4-0.4,1,0,1.4c0.5,0.5,0.6,1,0.5,1.3c-0.1,0.2-0.6,0.4-1.3,0.2c-0.5-0.1-1.1,0.2-1.2,0.7
	C16.1,22.6,16,23.3,16,24s0.1,1.4,0.3,2.1c0.1,0.5,0.7,0.8,1.2,0.7c0.7-0.2,1.2,0,1.3,0.2c0.1,0.2,0,0.7-0.5,1.3
	c-0.4,0.4-0.4,1,0,1.4c1,1,2.2,1.7,3.6,2.1c0.5,0.1,1.1-0.2,1.2-0.7c0.2-0.7,0.6-1,0.9-1s0.6,0.4,0.9,1c0.1,0.4,0.5,0.7,1,0.7
	c0.1,0,0.2,0,0.3,0c1.4-0.4,2.6-1.1,3.6-2.1c0.4-0.4,0.4-1,0-1.4c-0.5-0.5-0.6-1-0.5-1.3c0.1-0.2,0.6-0.4,1.3-0.2
	c0.5,0.1,1.1-0.2,1.2-0.7c0.2-0.7,0.3-1.4,0.3-2.1S31.9,22.6,31.7,21.9z M24,27c-1.7,0-3-1.3-3-3s1.3-3,3-3s3,1.3,3,3S25.7,27,24,27
	z"/>
</svg>